# xmcd
# 
# Track frame offsets:
#     150
#     12642
#     25810
#     38790
#     51015
#     60615
#     73572
#     87540
#     100367
#     111590
#     124745
#     138255
#     150185
#     161760
# 
# Disc length: 2324
# 
# Revision: 1
# Processed by: cddbd v1.5.2PL0 Copyright (c) Steve Scherf et al.
# Submitted via: fre:ac v1.0.31
# 
DISCID=bc09120e
DTITLE=Roots of Rhythm - Can't forget The Motor City
DYEAR=2000
DGENRE=R&B
TTITLE0=The Four Tops/It's the Same Old Song
TTITLE1=Martha Reeves and the Vandellas/Jimmy Mack
TTITLE2=The Marvelettes/Don't Mess with Bill
TTITLE3=Mary Wells/You Beat Me to the Punch
TTITLE4=Brenda Holloway/When I'm Gone
TTITLE5=Diana Ross and the Supremes/Reflections
TTITLE6=Jimmy Ruffin/What Becomes of the Broken Hearted
TTITLE7=Marvin Gaye and Tammi Terrell/You're All I Need to Get By
TTITLE8=Jr. Walker and the All Stars/What Does It Take
TTITLE9=Bobby Taylor and the Vancouvers/Does Your Mama Know About Me
TTITLE10=The Jackson 5/ ABC
TTITLE11=Barrett Stron/ Money (That's What I Want)
TTITLE12=The Temptations/Ain't Too Proud to Beg
TTITLE13=Smokey Robinson and the Miracles/Shop Around
EXTD=
EXTT0=
EXTT1=
EXTT2=
EXTT3=
EXTT4=
EXTT5=
EXTT6=
EXTT7=
EXTT8=
EXTT9=
EXTT10=
EXTT11=
EXTT12=
EXTT13=
PLAYORDER=
